<svg width="140" height="57" viewBox="0 0 140 57" fill="none" xmlns="http://www.w3.org/2000/svg">
<path fill-rule="evenodd" clip-rule="evenodd" d="M50.0199 7.80898C45.3993 5.86284 40.4894 4.69213 35.4879 4.34398C32.6469 4.34137 29.8168 4.69308 27.0629 5.39098C27.2115 4.81965 27.0285 4.47898 26.5139 4.36898C26.2914 3.79205 25.8707 3.31327 25.3271 3.01857C24.7835 2.72388 24.1527 2.63255 23.5479 2.76098C22.0312 2.87565 21.2752 3.93498 21.2799 5.93898C21.1174 6.01279 20.9768 6.12737 20.8716 6.27157C20.7665 6.41578 20.7005 6.58471 20.6799 6.76198C20.6502 6.97491 20.6898 7.19175 20.7931 7.38034C20.8963 7.56894 21.0575 7.71924 21.2529 7.80898C17.4823 10.0616 14.4569 13.3729 12.5529 17.331L12.4529 17.58H5.22588C5.19881 17.5933 5.1736 17.6101 5.15088 17.63L5.20087 17.58C6.34645 15.1378 7.82263 12.8648 9.58788 10.825C12.1698 7.7211 15.3844 5.20389 19.0168 3.44148C22.6492 1.67907 26.6159 0.712042 30.6519 0.60498C38.2139 0.98698 44.5122 3.31365 49.5469 7.58498L50.0199 7.80898Z" fill="white"/>
<path fill-rule="evenodd" clip-rule="evenodd" d="M54.357 42.785H58.32C57.52 43.799 56.6643 44.7877 55.753 45.751C52.645 49.1185 48.8478 51.7767 44.6199 53.5447C40.3921 55.3126 35.833 56.1487 31.253 55.996L29.807 55.947C29.6312 55.946 29.4558 55.9293 29.283 55.897C33.5372 55.7983 37.7279 54.8423 41.6041 53.0863C45.4803 51.3302 48.9624 48.8102 51.842 45.677C52.7385 44.7653 53.5785 43.7994 54.357 42.785Z" fill="#0054A6"/>
<path fill-rule="evenodd" clip-rule="evenodd" d="M45.5578 42.781H53.0408C52.3741 43.5956 51.6678 44.3933 50.9218 45.174C45.1382 51.3949 37.1248 55.0699 28.6368 55.394C19.9893 55.0115 11.81 51.3584 5.75381 45.174C4.62109 44.0422 3.54798 42.8522 2.53882 41.609H3.26182C3.57715 41.9423 3.90115 42.2663 4.23382 42.581C4.99204 43.3072 5.791 43.9896 6.62682 44.625C11.5585 48.7946 17.7048 51.2603 24.1508 51.655C33.2742 51.605 40.4115 48.647 45.5628 42.781" fill="white"/>
<path fill-rule="evenodd" clip-rule="evenodd" d="M29.9289 0.106986C25.846 0.152869 21.8225 1.09147 18.1407 2.85696C14.459 4.62245 11.208 7.17206 8.61592 10.327C6.74141 12.514 5.17335 14.946 3.95493 17.556L0.0449219 17.48C1.28113 14.8684 2.86591 12.4365 4.75592 10.251C10.7193 3.23899 18.4619 -0.17568 27.9839 0.00698715C28.4826 0.0236538 28.9563 0.0403197 29.4049 0.0569864C29.5807 0.0577339 29.7561 0.0744687 29.9289 0.106986Z" fill="#0054A6"/>
<path fill-rule="evenodd" clip-rule="evenodd" d="M128.203 32.939L130.474 36.264V32.939H132.204V38.939H130.474L128.23 35.639V38.939H126.473V32.939H128.203Z" fill="white"/>
<path fill-rule="evenodd" clip-rule="evenodd" d="M120.3 13.842C119.916 13.8144 119.53 13.8718 119.171 14.01C119.064 14.0739 118.976 14.1658 118.916 14.2759C118.857 14.386 118.829 14.5101 118.835 14.635L118.715 15.668C118.648 16.0047 118.712 16.221 118.907 16.317C119.253 16.44 119.622 16.4891 119.988 16.461H125.081C126.265 16.3533 127.45 16.6498 128.444 17.302C128.829 17.643 129.114 18.0832 129.266 18.5746C129.419 19.0659 129.434 19.5898 129.309 20.089L128.756 24.489C128.672 25.3335 128.435 26.1556 128.056 26.915C127.69 27.5685 127.126 28.0897 126.446 28.404C125.591 28.7753 124.662 28.9463 123.731 28.904H110.208L110.641 25.252C110.998 25.4373 111.367 25.598 111.746 25.733C112.651 25.8855 113.568 25.9498 114.485 25.925H120.3C120.68 25.9452 121.061 25.9047 121.429 25.805C121.534 25.7323 121.619 25.6352 121.678 25.5221C121.736 25.4091 121.767 25.2834 121.766 25.156L121.934 23.907C121.982 23.5863 121.918 23.37 121.741 23.258C121.399 23.1187 121.027 23.0691 120.66 23.114H114.822C114.055 23.1423 113.289 23.0284 112.564 22.778C112.306 22.664 112.076 22.4954 111.889 22.284C111.703 22.0725 111.564 21.8231 111.483 21.553C111.26 20.7888 111.211 19.9846 111.339 19.199L111.867 15.139C111.95 13.952 112.443 12.8307 113.261 11.967C114.113 11.2115 115.224 10.8155 116.361 10.862H130.247L129.814 14.442C129.415 14.2716 129.006 14.127 128.589 14.009C128.054 13.8838 127.505 13.8273 126.955 13.841L120.3 13.842Z" fill="#0054A6"/>
<path fill-rule="evenodd" clip-rule="evenodd" d="M100.285 23.981H107.204L106.604 28.906H99.6849L100.285 23.981ZM132.395 23.981H139.314L138.714 28.906H131.795L132.395 23.981ZM66.6269 23.981H73.5459L72.9459 28.906H66.0269L66.6269 23.981Z" fill="#0054A6"/>
<path fill-rule="evenodd" clip-rule="evenodd" d="M90.604 14.131C90.4433 13.923 90.075 13.827 89.499 13.843H85.775L84.31 25.927H88.01C88.4141 25.9944 88.8285 25.8995 89.163 25.663C89.4229 25.3164 89.5658 24.8962 89.571 24.463L90.7 15.334C90.8032 14.9342 90.768 14.5112 90.6 14.134M97.063 12.068C97.7676 12.868 97.992 14.1813 97.736 16.008L96.799 23.792C96.6959 24.8251 96.394 25.8285 95.91 26.747C95.4654 27.4966 94.7792 28.0727 93.964 28.381C92.9434 28.7693 91.8552 28.9488 90.764 28.909H76.189C76.4331 28.5477 76.6197 28.1506 76.742 27.732C76.9398 27.1135 77.0765 26.4771 77.15 25.832L78.64 13.964C78.7302 13.3275 78.7543 12.6834 78.712 12.042C78.6589 11.6426 78.5706 11.2488 78.448 10.865H93.007C94.977 10.849 96.3303 11.249 97.067 12.065" fill="#0054A6"/>
<path fill-rule="evenodd" clip-rule="evenodd" d="M48.4908 22.371C47.9915 22.8837 47.6254 23.5108 47.4244 24.1976C47.2234 24.8844 47.1937 25.61 47.3378 26.311C47.6265 27.5543 48.6875 28.4193 50.5208 28.906H39.3828C39.7988 28.458 40.1512 28.0737 40.4398 27.753C40.6958 27.433 40.9291 27.1127 41.1398 26.792C41.4296 26.4396 41.687 26.0617 41.9088 25.663L50.4818 11.899L49.7818 10.866H58.2388L62.9958 26.434C63.1398 26.8982 63.3248 27.3487 63.5488 27.78C63.7524 28.1897 64.0111 28.5695 64.3178 28.909H52.9688C53.7501 28.7542 54.4598 28.3494 54.9907 27.7557C55.5216 27.162 55.8449 26.4116 55.9118 25.618C55.9264 25.1771 55.9104 24.7357 55.8638 24.297C55.4484 20.7433 54.0227 17.3832 51.7558 14.615C51.7558 14.695 51.7478 14.679 51.7318 14.567C51.6444 17.4792 50.4903 20.2578 48.4888 22.375" fill="#0054A6"/>
<path fill-rule="evenodd" clip-rule="evenodd" d="M45.2578 32.939L46.1768 36.291L46.8258 32.939H48.5558L47.2318 38.939H45.4198L44.3658 35.154L43.3118 38.939H41.4998L40.1748 32.939H41.9318L42.5538 36.291L43.4998 32.939H45.2578Z" fill="white"/>
<path fill-rule="evenodd" clip-rule="evenodd" d="M52.8559 32.94L55.0999 38.94H53.1529L52.8529 37.94H50.7439L50.4739 38.94H48.5549L50.8259 32.94H52.8559ZM51.8019 34.508L51.1529 36.644H52.4779L51.8019 34.508Z" fill="white"/>
<path fill-rule="evenodd" clip-rule="evenodd" d="M58.128 32.832C58.7444 32.7902 59.3585 32.9415 59.885 33.265C60.0985 33.4229 60.2746 33.6259 60.4007 33.8596C60.5269 34.0932 60.6001 34.3518 60.615 34.617L58.858 34.725C58.8501 34.6108 58.8195 34.4994 58.7679 34.3972C58.7164 34.2951 58.645 34.2042 58.558 34.13C58.3824 34.0129 58.1736 33.956 57.963 33.968C57.7899 33.9548 57.6176 34.0025 57.476 34.103C57.4226 34.1305 57.3771 34.1711 57.3436 34.221C57.31 34.2708 57.2896 34.3283 57.2843 34.3882C57.2789 34.448 57.2887 34.5082 57.3127 34.5632C57.3368 34.6183 57.3744 34.6663 57.422 34.703C57.6141 34.8129 57.8251 34.8861 58.044 34.919C58.6483 35.0182 59.2382 35.1904 59.801 35.432C60.1111 35.5828 60.3732 35.8168 60.558 36.108C60.7198 36.3772 60.8039 36.6859 60.801 37C60.8014 37.3761 60.6881 37.7435 60.476 38.054C60.2538 38.3835 59.9452 38.6454 59.584 38.811C59.1274 38.9871 58.6401 39.0698 58.151 39.054C57.3891 39.1357 56.6249 38.9228 56.015 38.459C55.6326 38.0537 55.4031 37.528 55.366 36.972L57.123 36.864C57.1455 37.0978 57.2297 37.3214 57.367 37.512C57.4639 37.6315 57.5882 37.726 57.7294 37.7872C57.8706 37.8485 58.0244 37.8748 58.178 37.864C58.4014 37.879 58.6227 37.8118 58.8 37.675C58.8591 37.6194 58.9064 37.5523 58.9389 37.4779C58.9714 37.4034 58.9884 37.3232 58.989 37.242C58.9865 37.165 58.9685 37.0894 58.936 37.0196C58.9035 36.9499 58.8573 36.8874 58.8 36.836C58.5132 36.6531 58.1907 36.5334 57.854 36.485C57.2195 36.3815 56.618 36.1315 56.097 35.755C55.931 35.6111 55.7989 35.4323 55.7101 35.2314C55.6212 35.0306 55.5778 34.8126 55.583 34.593C55.5837 34.284 55.6778 33.9825 55.853 33.728C56.0561 33.4389 56.3374 33.2138 56.664 33.079C57.1287 32.8983 57.6258 32.8156 58.124 32.836" fill="white"/>
<path fill-rule="evenodd" clip-rule="evenodd" d="M67.4809 32.939V38.939H65.6389V36.508H63.6108V38.941H61.7458V32.941H63.6108V35.05H65.6389V32.939H67.4809Z" fill="white"/>
<path d="M68.7788 32.94H70.6438V38.942H68.7788V32.94Z" fill="white"/>
<path fill-rule="evenodd" clip-rule="evenodd" d="M73.7258 32.939L75.9968 36.264V32.939H77.7269V38.939H75.9968L73.7529 35.639V38.939H71.9958V32.939H73.7258Z" fill="white"/>
<path fill-rule="evenodd" clip-rule="evenodd" d="M83.4588 33.021C83.7724 33.1396 84.0512 33.3349 84.2698 33.589C84.4986 33.8654 84.6648 34.1882 84.7568 34.535L82.9728 34.859C82.9166 34.6462 82.7814 34.4627 82.5948 34.346C82.3946 34.2142 82.1583 34.1481 81.9188 34.157C81.7346 34.1519 81.5515 34.1881 81.3832 34.263C81.2148 34.338 81.0653 34.4497 80.9458 34.59C80.6766 34.9766 80.552 35.4457 80.5938 35.915C80.5495 36.4136 80.6835 36.9118 80.9718 37.321C81.0978 37.4588 81.2529 37.5667 81.4259 37.6367C81.599 37.7068 81.7855 37.7373 81.9718 37.726C82.173 37.7282 82.3735 37.7009 82.5668 37.645C82.7963 37.5762 83.0148 37.4752 83.2158 37.345V36.776H81.9718V35.506H84.8368V38.076C84.3938 38.4049 83.9009 38.6604 83.3768 38.833C82.8966 38.987 82.394 39.06 81.8898 39.049C81.29 39.0771 80.6933 38.9467 80.1598 38.671C79.7034 38.4307 79.3345 38.0523 79.1058 37.59C78.8522 37.0666 78.7227 36.4919 78.7274 35.9103C78.7321 35.3288 78.8708 34.7562 79.1328 34.237C79.4024 33.7515 79.8186 33.3637 80.3218 33.129C80.8429 32.9094 81.4058 32.807 81.9708 32.829C82.4737 32.8057 82.9768 32.8696 83.4578 33.018" fill="white"/>
<path fill-rule="evenodd" clip-rule="evenodd" d="M94.7599 36.32C94.6879 36.5547 94.6249 36.744 94.5709 36.888C94.4989 37.032 94.4089 37.2033 94.3009 37.402L94.9229 37.835C95.0163 37.9004 95.117 37.9548 95.2229 37.997L94.3309 39.051C94.1545 38.9519 93.9832 38.8438 93.8179 38.727C93.6373 38.6183 93.4749 38.5283 93.3309 38.457C93.0611 38.6284 92.7704 38.7645 92.4659 38.862C92.0276 38.994 91.5716 39.0578 91.1139 39.051C90.4763 39.1051 89.8411 38.922 89.3299 38.537C89.1429 38.3947 88.9917 38.2106 88.8884 37.9995C88.7851 37.7883 88.7326 37.556 88.7349 37.321C88.7367 36.9741 88.861 36.639 89.0859 36.375C89.3898 36.0192 89.7814 35.7489 90.2219 35.591C90.0343 35.391 89.8791 35.1629 89.7619 34.915C89.6747 34.7287 89.6286 34.5257 89.6269 34.32C89.6214 34.1188 89.6623 33.919 89.7466 33.7361C89.8309 33.5533 89.9563 33.3924 90.1129 33.266C90.5392 32.9451 91.0681 32.7911 91.5999 32.833C92.1275 32.792 92.653 32.9351 93.0869 33.238C93.2317 33.3492 93.3487 33.4926 93.4285 33.6568C93.5083 33.8209 93.5489 34.0014 93.5469 34.184C93.5474 34.3813 93.5011 34.576 93.4119 34.752C93.3359 34.9326 93.2151 35.0909 93.0609 35.212C92.8346 35.4139 92.5902 35.5946 92.3309 35.752C92.6202 36.0411 92.9271 36.3119 93.2499 36.563C93.3435 36.3924 93.416 36.2111 93.4659 36.023L94.7599 36.32ZM92.2189 34.211C92.2233 34.1502 92.2134 34.0892 92.1899 34.033C92.1665 33.9767 92.1302 33.9267 92.0839 33.887C91.9696 33.7947 91.8258 33.7467 91.6789 33.752C91.5231 33.7438 91.3695 33.7917 91.2459 33.887C91.1966 33.9315 91.1568 33.9855 91.1289 34.0459C91.1011 34.1062 91.0858 34.1716 91.0839 34.238C91.0839 34.4 91.2373 34.6433 91.5439 34.968C91.7332 34.8812 91.8999 34.7518 92.0309 34.59C92.1363 34.4897 92.2032 34.3555 92.2199 34.211M90.6519 37.726C90.7379 37.8085 90.8398 37.8725 90.9514 37.9143C91.063 37.9561 91.1819 37.9747 91.3009 37.969C91.6612 37.951 92.0085 37.8291 92.3009 37.618C91.9583 37.3473 91.5076 36.9507 90.9489 36.428C90.774 36.5362 90.6185 36.6731 90.4889 36.833C90.4201 36.9476 90.3828 37.0783 90.3809 37.212C90.3825 37.3127 90.4077 37.4116 90.4546 37.5008C90.5015 37.5899 90.5688 37.6667 90.6509 37.725" fill="white"/>
<path fill-rule="evenodd" clip-rule="evenodd" d="M103.168 33.264C103.381 33.4219 103.558 33.6248 103.684 33.8585C103.81 34.0922 103.883 34.3508 103.898 34.616L102.141 34.724C102.134 34.609 102.103 34.4966 102.052 34.3936C102 34.2905 101.929 34.1988 101.841 34.124C101.665 34.0068 101.457 33.95 101.246 33.962C101.073 33.949 100.901 33.9967 100.759 34.097C100.706 34.1247 100.662 34.165 100.629 34.2144C100.596 34.2638 100.576 34.3207 100.57 34.3798C100.565 34.439 100.574 34.4985 100.598 34.553C100.621 34.6075 100.658 34.6553 100.705 34.692C100.897 34.8023 101.108 34.8755 101.327 34.908C101.931 35.0073 102.521 35.1796 103.084 35.421C103.394 35.5719 103.656 35.8059 103.841 36.097C104.003 36.3662 104.087 36.6749 104.084 36.989C104.084 37.3651 103.971 37.7325 103.759 38.043C103.537 38.3728 103.228 38.6348 102.867 38.8C102.41 38.9765 101.923 39.0595 101.434 39.044C100.671 39.1243 99.9071 38.9096 99.2979 38.444C98.9155 38.0387 98.6861 37.513 98.6489 36.957L100.406 36.849C100.428 37.0831 100.512 37.3071 100.649 37.498C100.746 37.6172 100.87 37.7114 101.012 37.7725C101.153 37.8336 101.307 37.8598 101.46 37.849C101.683 37.8641 101.905 37.7969 102.082 37.66C102.141 37.6044 102.188 37.5373 102.221 37.4629C102.253 37.3884 102.27 37.3082 102.271 37.227C102.268 37.1502 102.25 37.0748 102.218 37.0052C102.185 36.9355 102.139 36.8732 102.082 36.822C101.795 36.6384 101.473 36.5184 101.136 36.47C100.502 36.3664 99.9 36.1165 99.3789 35.74C99.2131 35.5958 99.0812 35.4168 98.9925 35.2158C98.9038 35.0148 98.8606 34.7966 98.8659 34.577C98.8667 34.268 98.9608 33.9665 99.1359 33.712C99.3389 33.4228 99.6203 33.1976 99.9469 33.063C100.412 32.8822 100.909 32.7995 101.407 32.82C102.023 32.7782 102.638 32.9295 103.164 33.253" fill="white"/>
<path fill-rule="evenodd" clip-rule="evenodd" d="M106.872 35.184H109.765V36.4H106.872V37.59H110.089V38.941H105.034V32.941H109.981V34.212H106.872V35.184Z" fill="white"/>
<path fill-rule="evenodd" clip-rule="evenodd" d="M115.064 38.942L114.764 37.942H112.656L112.386 38.942H110.466L112.737 32.942H114.764L117.008 38.942H115.064ZM113.712 34.508L113.063 36.644H114.388L113.712 34.508Z" fill="white"/>
<path fill-rule="evenodd" clip-rule="evenodd" d="M119.443 32.939V37.454H122.336V38.941H117.605V32.941L119.443 32.939Z" fill="white"/>
<path d="M123.255 32.94H125.12V38.942H123.255V32.94Z" fill="white"/>
<path fill-rule="evenodd" clip-rule="evenodd" d="M137.07 34.345C136.87 34.2132 136.633 34.1471 136.394 34.156C136.21 34.1509 136.027 34.1872 135.858 34.2621C135.69 34.3371 135.541 34.4487 135.421 34.589C135.152 34.9758 135.028 35.4447 135.069 35.914C135.025 36.4126 135.158 36.9109 135.447 37.32C135.573 37.4578 135.728 37.5657 135.901 37.6357C136.074 37.7058 136.261 37.7363 136.447 37.725C136.648 37.7272 136.849 37.6999 137.042 37.644C137.271 37.575 137.49 37.474 137.691 37.344V36.776H136.447V35.508H139.314V38.076C138.871 38.4045 138.378 38.6601 137.854 38.833C137.374 38.9869 136.871 39.0599 136.367 39.049C135.767 39.0767 135.17 38.946 134.637 38.67C134.181 38.4297 133.812 38.0513 133.583 37.589C133.329 37.0658 133.2 36.4912 133.205 35.9098C133.209 35.3285 133.348 34.756 133.61 34.237C133.88 33.7515 134.296 33.3637 134.799 33.129C135.32 32.9092 135.883 32.8068 136.448 32.829C136.951 32.8058 137.454 32.8698 137.935 33.018C138.249 33.1364 138.528 33.3317 138.746 33.586C138.975 33.8624 139.141 34.1852 139.233 34.532L137.449 34.857C137.393 34.6438 137.258 34.4601 137.071 34.343" fill="white"/>
<path fill-rule="evenodd" clip-rule="evenodd" d="M54.3019 27.107C52.8286 27.4916 52.5082 26.987 53.3409 25.593C54.2856 24.2796 54.2455 21.9333 53.2209 18.554C54.9342 21.7893 55.2946 24.6403 54.3019 27.107Z" fill="#0054A6"/>
<path fill-rule="evenodd" clip-rule="evenodd" d="M34.7489 23.556L35.1489 24.697C35.1206 24.8586 35.1045 25.022 35.1009 25.186C35.1589 25.186 35.2159 25.196 35.2719 25.205C35.6135 25.2501 35.9388 25.3786 36.2191 25.5792C36.4993 25.7797 36.7259 26.0462 36.8789 26.355C37.0951 26.7404 37.199 27.1786 37.1789 27.62C37.1619 27.8357 37.1021 28.0458 37.0029 28.238C36.9719 28.295 36.9429 28.352 36.9169 28.409C36.6386 28.7915 36.2695 29.0987 35.8429 29.303L36.8129 29.816V42.816C35.5135 43.7413 33.9225 43.7443 32.0399 42.825L32.0779 29.809L32.9049 29.22V28.488H33.6749V26.617L33.2569 25.942L33.2709 25.69C33.2182 25.6507 33.1072 25.6937 32.9379 25.819C32.7067 26.0513 32.5468 26.3448 32.4769 26.665C32.3468 27.0877 32.1209 27.4748 31.8169 27.796L31.7409 39.984C31.718 40.6446 31.6452 41.3024 31.5229 41.952C31.4342 42.2627 31.3422 42.586 31.2469 42.922C31.1952 43.053 31.1711 43.1933 31.1761 43.334C31.1811 43.4748 31.215 43.613 31.2759 43.74L31.8459 44.976L31.9029 45.737L31.8169 46.498C30.6491 46.8519 29.3979 46.8168 28.2519 46.398L28.5379 43.831L27.9579 43.213L28.0439 41.597L27.4169 31.297C27.0769 31.4399 26.7274 31.5588 26.3709 31.653L25.9899 37.985L26.1799 41.645L26.2279 41.978L26.5609 42.549L26.2749 43.195V45.401C25.6052 45.579 24.9006 45.579 24.2309 45.401C23.2033 45.9184 22.0396 46.1012 20.9029 45.924C20.7129 45.1633 20.8079 44.6563 21.1879 44.403C22.3732 44.1243 22.9595 43.6807 22.9469 43.072L22.5659 42.549L23.0889 42.121L22.5229 37.796L22.1899 31.626L22.1989 31.003C23.6139 31.4672 25.1356 31.4971 26.5679 31.089C26.8397 31.0091 27.1067 30.9139 27.3679 30.804H27.3909C29.1194 30.0074 30.6292 28.8037 31.7909 27.296C31.7902 27.293 31.7902 27.29 31.7909 27.287C31.9886 26.9629 32.1346 26.61 32.2239 26.241C32.2894 25.9979 32.429 25.7812 32.6232 25.6211C32.8175 25.4609 33.0567 25.3651 33.3079 25.347L33.3269 25.176C33.1984 25.017 33.0269 24.8983 32.8329 24.834C32.6176 24.654 32.4783 24.3993 32.4429 24.121L31.8159 23.835V23.826C31.3605 19.4927 30.8392 16.7323 30.2519 15.545L31.3519 22.233L31.3429 22.2L31.5239 23.93C31.2192 24.0187 30.8832 24.1073 30.5159 24.196L30.5439 24.985C31.1525 24.801 31.5042 24.6933 31.5989 24.662H31.6179L31.7599 26.982C30.5951 28.5435 29.0683 29.7985 27.3109 30.639L26.8349 27.777L26.5119 30.89C25.0966 31.3072 23.5844 31.2556 22.2009 30.743V30.667C22.2182 28.5157 22.2752 26.7727 22.3719 25.438C22.7113 25.428 23.0511 25.4407 23.3889 25.476L23.4459 24.649C23.0845 24.616 22.7257 24.5588 22.3719 24.478C22.3625 22.8163 22.2288 21.1577 21.9719 19.516C21.5948 17.7544 21.3534 15.9665 21.2499 14.168L21.2359 12.347V12.096C21.4956 11.949 21.7693 11.8281 22.0529 11.735C22.2526 11.6707 22.4556 11.6166 22.6609 11.573L23.3079 10.385C22.9379 10.0829 22.6487 9.69369 22.4661 9.25231C22.2836 8.81094 22.2134 8.33116 22.2619 7.85599C22.0419 7.81209 21.8281 7.74192 21.6249 7.64699C20.8962 7.22832 20.8962 6.72133 21.6249 6.12599C21.6215 4.03933 22.4312 3.05799 24.0539 3.18199C24.5287 3.12555 25.0078 3.24408 25.4015 3.5154C25.7952 3.78671 26.0765 4.19221 26.1929 4.65599C26.2572 4.66763 26.3207 4.68367 26.3829 4.70399C26.4209 4.71599 26.4559 4.72899 26.4829 4.74199L26.5209 4.76099C26.9582 4.98299 26.8662 5.46132 26.2449 6.19599C26.2579 6.25299 26.2699 6.31299 26.2829 6.37699C26.3466 6.74855 26.3435 7.1285 26.2739 7.49899C26.2322 7.73479 26.1717 7.96687 26.0929 8.19299C26.0869 8.40166 25.9695 8.51233 25.7409 8.52499L25.7319 8.64899V9.81899C26.0588 10.0003 26.3341 10.2618 26.5319 10.579L28.7089 10.408C30.0715 10.8747 31.3382 12.269 32.5089 14.591L33.6499 18.391L34.2679 19.437V20.15C34.6176 20.7542 34.7456 21.4615 34.6299 22.15C34.9394 22.5567 35.076 23.0692 35.0099 23.576L34.7489 23.556ZM35.1009 26.218L34.5779 26.741V28.519H35.6709L35.6329 28.947C35.8087 28.847 35.9716 28.7257 36.1179 28.586C36.9672 27.8733 36.9672 27.0097 36.1179 25.995C35.8194 25.717 35.4322 25.5537 35.0249 25.534C35.0001 25.7651 35.0261 25.9989 35.1009 26.219M28.0939 25.572C28.5176 25.5297 28.9373 25.4534 29.3489 25.344L29.2489 24.432C28.8435 24.4987 28.4379 24.559 28.0319 24.613L28.0939 25.572ZM27.4289 31.305C27.4989 31.2737 27.5702 31.2403 27.6429 31.205C27.5689 31.238 27.4969 31.27 27.4249 31.305H27.4289ZM24.6719 24.735L24.6339 25.581C25.2865 25.625 25.8919 25.6503 26.4499 25.657V24.735C25.8545 24.7603 25.2619 24.7603 24.6719 24.735ZM32.3299 37.841L32.3209 37.955V38.057L32.3299 37.786V37.829V37.841Z" fill="#000006"/>
<path fill-rule="evenodd" clip-rule="evenodd" d="M32.3198 37.993V37.955L32.3288 37.836L32.3198 37.993Z" fill="white"/>
<path fill-rule="evenodd" clip-rule="evenodd" d="M4.73383 32.76L4.29683 32.57L4.27783 32.603C4.35065 31.4888 4.82704 30.4393 5.61783 29.651L11.1178 25.551L11.1938 25.484L12.1158 23.393L14.1218 22.223C14.0086 22.1852 13.8878 22.1758 13.7701 22.1957C13.6524 22.2156 13.5414 22.2641 13.4468 22.337C13.4414 22.3349 13.4355 22.3343 13.4297 22.3351C13.4239 22.336 13.4184 22.3384 13.4138 22.342L17.2028 19.086L17.4028 18.715L18.6278 15.266C19.077 13.9233 20.0085 12.7952 21.2418 12.1L21.6318 14.933V16.683L19.4548 21.104L15.7088 23.795C15.6422 24.2256 15.2365 24.4923 14.4918 24.595L14.0448 24.757C15.4348 27.8836 18.1538 29.969 22.2018 31.013L22.1928 31.631C18.1928 30.511 15.4168 28.6776 13.8648 26.131C13.8469 26.1121 13.8312 26.0913 13.8178 26.069C13.7369 26.104 13.649 26.1201 13.5608 26.116C13.6126 26.1523 13.6562 26.1989 13.6889 26.253C13.7216 26.307 13.7427 26.3673 13.7508 26.43C13.7491 26.5503 13.7092 26.6669 13.6368 26.763L12.9808 26.611L12.2488 26.117L12.1488 25.517C12.0523 25.6292 11.9325 25.7191 11.7979 25.7805C11.6632 25.842 11.5169 25.8735 11.3688 25.873L11.2688 25.759L11.3688 25.878L5.97783 29.985C5.58967 30.3331 5.28477 30.7641 5.08571 31.246C4.88664 31.7279 4.79851 32.2484 4.82784 32.769L4.79984 32.731L4.73383 32.76Z" fill="#000006"/>
</svg>
